<?xml version="1.0" encoding="utf-8"?>
<!-- Generator: Adobe Illustrator 21.0.0, SVG Export Plug-In . SVG Version: 6.00 Build 0)  -->
<svg version="1.1" id="Capa_1" xmlns="http://www.w3.org/2000/svg" xmlns:xlink="http://www.w3.org/1999/xlink" x="0px" y="0px"
	 viewBox="0 0 400 100" style="enable-background:new 0 0 400 100;" xml:space="preserve">
<style type="text/css">
	.st0{fill:#0E553F;}
	.st1{fill-rule:evenodd;clip-rule:evenodd;fill:#1D1D1B;}
</style>
<polygon class="st0" points="95.3,3.1 95.3,44.8 53.5,44.8 53.5,3.1 43.1,3.1 43.1,44.8 1.3,44.8 1.3,55.3 43.1,55.3 43.1,97.1 
	53.5,97.1 53.5,55.3 95.3,55.3 95.3,97.1 105.8,97.1 105.8,3.1 "/>
<polygon class="st0" points="64,65.7 64,73.1 77.5,86.6 84.9,79.3 71.4,65.7 "/>
<polygon class="st0" points="11.7,79.3 19.1,86.6 32.6,73.1 32.6,65.7 25.3,65.7 "/>
<polygon class="st0" points="32.6,34.4 32.6,27 19.1,13.5 11.7,20.9 25.3,34.4 "/>
<polygon class="st0" points="84.9,20.9 77.5,13.5 64,27 64,34.4 71.4,34.4 "/>
<path d="M154.7,31.1v-8.4h-28.4v8.4h9.5v30h9.5v-30H154.7 M188.9,47.6v-25h-9.5v24.7c0,3.6-2.1,5.6-5.2,5.6c-3.1,0-5.1-2.1-5.1-5.6
	V22.6h-9.5v25c0,8.4,6.5,13.8,14.5,13.8C182.3,61.4,188.9,56,188.9,47.6z M224.1,61.1V22.6h-2.9v17.8h-20V22.6h-2.9v38.5h2.9V43h20
	v18.1H224.1z M262,48.6v-26h-2.9v25.6c0,6.4-4.1,10.6-10.3,10.6s-10.3-4.2-10.3-10.6V22.6h-2.9v26c0,7.5,5.5,12.8,13.2,12.8
	S262,56.1,262,48.6z M296.8,61.1v-2.6h-20.4V43h17.4v-2.6h-17.4V25.2h20.4v-2.6h-23.3v38.5H296.8z M328.5,50.8
	c0-3.1-1.2-5.7-3.3-7.5c-1.6-1.4-3.2-2-6.9-2.5l-4.2-0.6c-2.2-0.3-4.4-1.2-5.7-2.4c-1.4-1.1-2-2.8-2-5c0-4.9,3.3-7.9,8.9-7.9
	c4.6,0,7,1.5,9.3,3.6l1.9-1.9c-3.3-2.9-6.3-4.2-11.1-4.2c-7.3,0-11.9,4.1-11.9,10.5c0,3,1,5.3,3,7.1c1.6,1.4,3.9,2.4,6.9,2.8
	l4.5,0.7c3.1,0.5,4.2,0.9,5.6,2.1c1.4,1.2,2.1,3.1,2.1,5.4c0,5-3.8,7.9-9.9,7.9c-4.6,0-7.5-1.1-10.9-4.5l-2.1,2.1
	c3.5,3.5,7.1,5.1,12.8,5.1C323.6,61.4,328.5,57.3,328.5,50.8z M362.6,50.2h-2.9c-1.1,5.3-5,8.6-10.2,8.6c-2.8,0-5.3-1-7.3-3
	c-2.8-2.8-3-5.7-3-14s0.2-11.2,3-14c1.9-1.9,4.5-3,7.3-3c5.2,0,9,3.3,10.1,8.6h3c-1.2-7-6.2-11.2-13.1-11.2c-3.6,0-7.1,1.4-9.6,3.9
	c-3.5,3.5-3.6,6.9-3.6,15.6s0.1,12.1,3.6,15.6c2.5,2.5,6,3.9,9.6,3.9C356.2,61.4,361.3,57.2,362.6,50.2z M398,61.1l-14.2-38.5h-2.6
	L367,61.1h3.1l3.3-9.3h17.9l3.3,9.3H398z M390.6,49.2h-16.1l8-22.6L390.6,49.2z"/>
<g>
	<path class="st1" d="M133.6,70.8v-1h-7.3v1h3.1v9.7h1.1v-9.7H133.6 M145.9,76.9v-7.2h-1.1v7.1c0,1.6-1,2.7-2.6,2.7
		s-2.6-1.1-2.6-2.7v-7.1h-1.1v7.2c0,2.1,1.6,3.6,3.7,3.6C144.4,80.5,145.9,79,145.9,76.9z M159.4,80.4l-2.5-4.8
		c1.4-0.3,2.3-1.3,2.3-2.9c0-1.8-1.3-3-3.2-3h-4.1v10.7h1.1v-4.7h2.6l2.4,4.7H159.4z M158,72.7c0,1.3-0.9,2-2.1,2H153v-3.9h2.9
		C157.1,70.8,158,71.4,158,72.7z M165.9,80.4V69.8h-1.1v10.7H165.9z M178.4,77.5c0-0.9-0.3-1.6-0.9-2.1c-0.5-0.4-0.9-0.6-2-0.8
		l-1.2-0.2c-0.6-0.1-1.1-0.3-1.4-0.6c-0.3-0.3-0.5-0.7-0.5-1.2c0-1.2,0.8-2,2.3-2c1.1,0,1.8,0.3,2.5,0.9l0.7-0.7
		c-0.9-0.8-1.8-1.2-3.2-1.2c-2.1,0-3.4,1.2-3.4,3c0,0.9,0.3,1.5,0.8,2c0.5,0.4,1.1,0.7,2,0.8l1.2,0.2c0.8,0.1,1.1,0.2,1.4,0.5
		c0.3,0.3,0.5,0.8,0.5,1.3c0,1.2-1,2-2.5,2c-1.2,0-2-0.3-2.9-1.2l-0.8,0.8c1,1,2.1,1.4,3.7,1.4C176.9,80.5,178.4,79.4,178.4,77.5z
		 M192.9,80.4V69.8h-1.1l-3.4,7.6l-3.5-7.6h-1.1v10.7h1.1v-8.1l3,6.4h1l2.9-6.4v8.1H192.9z M206.1,75.1c0-2.3,0-3.3-1-4.3
		c-0.7-0.7-1.7-1.1-2.7-1.1s-2,0.4-2.7,1.1c-1,1-1,2.1-1,4.3c0,2.3,0,3.3,1,4.3c0.7,0.7,1.7,1.1,2.7,1.1s2-0.4,2.7-1.1
		C206.1,78.4,206.1,77.4,206.1,75.1z M205,75.1c0,2.2-0.1,3-0.8,3.7c-0.5,0.5-1.1,0.8-1.8,0.8s-1.4-0.3-1.8-0.8
		c-0.7-0.7-0.8-1.4-0.8-3.7c0-2.2,0.1-3,0.8-3.6c0.5-0.5,1.1-0.8,1.8-0.8s1.4,0.3,1.8,0.8C204.9,72.1,205,72.9,205,75.1z
		 M225.8,72.9c0-1.9-1.4-3.1-3.3-3.1h-4v10.7h1.1V76h2.8C224.5,76,225.8,74.8,225.8,72.9z M224.7,72.9c0,1.4-0.9,2.1-2.3,2.1h-2.7
		v-4.2h2.7C223.8,70.8,224.7,71.5,224.7,72.9z M238.5,80.4l-2.5-4.8c1.4-0.3,2.3-1.3,2.3-2.9c0-1.8-1.3-3-3.2-3H231v10.7h1.1v-4.7
		h2.6l2.4,4.7H238.5z M237.1,72.7c0,1.3-0.9,2-2.1,2h-2.9v-3.9h2.9C236.2,70.8,237.1,71.4,237.1,72.7z M250.9,75.1
		c0-2.3,0-3.3-1-4.3c-0.7-0.7-1.7-1.1-2.7-1.1s-2,0.4-2.7,1.1c-1,1-1,2.1-1,4.3c0,2.3,0,3.3,1,4.3c0.7,0.7,1.7,1.1,2.7,1.1
		s2-0.4,2.7-1.1C250.9,78.4,250.9,77.4,250.9,75.1z M249.8,75.1c0,2.2-0.1,3-0.8,3.7c-0.5,0.5-1.1,0.8-1.8,0.8
		c-0.7,0-1.4-0.3-1.8-0.8c-0.7-0.7-0.7-1.4-0.7-3.7c0-2.2,0.1-3,0.7-3.6c0.5-0.5,1.1-0.8,1.8-0.8c0.7,0,1.4,0.3,1.8,0.8
		C249.7,72.1,249.8,72.9,249.8,75.1z M263,69.8h-1.2l-2.8,8.6l-2.8-8.6H255l3.5,10.7h0.9L263,69.8z M268.8,80.4V69.8h-1.1v10.7
		H268.8z M282.8,80.4V69.8h-1.1v8.5l-5.7-8.5h-1.1v10.7h1.1v-8.6l5.7,8.6H282.8z M295.9,77.4h-1.1c-0.3,1.3-1.2,2.2-2.6,2.2
		c-0.7,0-1.4-0.3-1.8-0.7c-0.7-0.7-0.8-1.4-0.8-3.7c0-2.2,0.1-3,0.8-3.7c0.5-0.5,1.1-0.8,1.8-0.8c1.3,0,2.3,0.9,2.5,2.2h1.2
		c-0.4-2-1.8-3.2-3.7-3.2c-1.1,0-2,0.4-2.7,1.1c-1,1-1,2.1-1,4.3c0,2.3,0,3.3,1,4.3c0.7,0.7,1.7,1.1,2.7,1.1
		C294.1,80.5,295.6,79.4,295.9,77.4z M302.6,80.4V69.8h-1.1v10.7H302.6z M316.1,80.4l-3.9-10.7h-1l-3.9,10.7h1.2l0.9-2.4h4.7
		l0.9,2.4H316.1z M313.7,77h-4l2-5.6L313.7,77z M335,80.4V69.8h-1.1v4.8h-5.1v-4.8h-1.1v10.7h1.1v-4.9h5.1v4.9H335z M348.4,76.9
		v-7.2h-1.1v7.1c0,1.6-1,2.7-2.6,2.7s-2.6-1.1-2.6-2.7v-7.1h-1.1v7.2c0,2.1,1.6,3.6,3.7,3.6C346.8,80.5,348.4,79,348.4,76.9z
		 M360.9,80.4v-1h-5.5v-3.9h4.7v-1h-4.7v-3.8h5.5v-1h-6.6v10.7H360.9z M372.8,77.5c0-0.9-0.3-1.6-0.9-2.1c-0.5-0.4-0.9-0.6-2-0.8
		l-1.2-0.2c-0.6-0.1-1.1-0.3-1.4-0.6c-0.3-0.3-0.5-0.7-0.5-1.2c0-1.2,0.8-2,2.3-2c1.1,0,1.8,0.3,2.5,0.9l0.7-0.7
		c-0.9-0.8-1.8-1.2-3.2-1.2c-2.1,0-3.4,1.2-3.4,3c0,0.9,0.3,1.5,0.8,2c0.5,0.4,1.1,0.7,2,0.8l1.2,0.2c0.8,0.1,1.1,0.2,1.4,0.5
		c0.3,0.3,0.5,0.8,0.5,1.3c0,1.2-1,2-2.5,2c-1.2,0-2-0.3-2.9-1.2l-0.8,0.8c1,1,2.1,1.4,3.7,1.4C371.3,80.5,372.8,79.4,372.8,77.5z
		 M385.2,77.4H384c-0.3,1.3-1.2,2.2-2.6,2.2c-0.7,0-1.4-0.3-1.8-0.7c-0.7-0.7-0.8-1.4-0.8-3.7c0-2.2,0.1-3,0.8-3.7
		c0.5-0.5,1.1-0.8,1.8-0.8c1.3,0,2.3,0.9,2.5,2.2h1.2c-0.4-2-1.8-3.2-3.7-3.2c-1.1,0-2,0.4-2.7,1.1c-1,1-1,2.1-1,4.3
		c0,2.3,0,3.3,1,4.3c0.7,0.7,1.7,1.1,2.7,1.1C383.4,80.5,384.8,79.4,385.2,77.4z M398,80.4l-3.9-10.7h-1l-3.9,10.7h1.2l0.9-2.4h4.7
		l0.9,2.4H398z M395.6,77h-4l2-5.6L395.6,77z"/>
</g>
</svg>
